Coordinates
version=1
nRows=8
nColumns=34
inDegrees=yes

Units are S.I. units (second, meters, Newtons, ...)
If the header above contains a line with 'inDegrees', this indicates whether rotational values are in degrees (yes) or radians (no).

endheader
time	pelvis_tilt	pelvis_list	pelvis_rotation	pelvis_tx	pelvis_ty	pelvis_tz	hip_flexion_r	hip_adduction_r	hip_rotation_r	knee_angle_r	ankle_angle_r	subtalar_angle_r	mtp_angle_r	hip_flexion_l	hip_adduction_l	hip_rotation_l	knee_angle_l	ankle_angle_l	subtalar_angle_l	mtp_angle_l	lumbar_extension	lumbar_bending	lumbar_rotation	arm_flex_r	arm_add_r	arm_rot_r	elbow_flex_r	pro_sup_r	arm_flex_l	arm_add_l	arm_rot_l	elbow_flex_l	pro_sup_l
      7.63333330	    -24.04977670	     -0.80302638	      6.06592687	      0.66977854	      0.50374727	     -0.08223921	    108.33426037	    -15.72424134	      5.53457377	    105.44895673	     19.50183538	    -27.90608428	      0.00000000	    108.59936954	     -6.02353063	      2.04852171	    104.53326373	     23.97456615	    -15.50559449	      0.00000000	    -29.37349596	      3.35312587	      1.41982372	    137.40286164	     -6.99883728	     60.59200050	     17.47119555	     55.56272653	    131.78223596	     -0.10768506	     42.51200099	     17.65114738	     42.90407932
      7.65000000	    -24.16438264	     -1.00893403	      6.23392512	      0.66847734	      0.49871744	     -0.08225700	    109.02245650	    -16.10413286	      5.56236797	    106.12444729	     19.61927064	    -27.70958774	      0.00000000	    109.44719338	     -5.79026156	      2.28067193	    105.05050565	     24.05585983	    -15.20006700	      0.00000000	    -29.52166718	      3.63737367	      1.26224468	    138.05239552	     -7.02745739	     60.57920041	     17.41825267	     55.43547115	    132.20939773	     -0.09946559	     42.53794578	     17.51390259	     42.75420594
      7.66666670	    -24.22278573	     -1.34893632	      6.38986060	      0.67006278	      0.49521003	     -0.08238171	    109.53991247	    -16.47175788	      5.38265822	    106.68796277	     20.02894463	    -27.25517770	      0.00000000	    110.16891260	     -5.60499694	      2.69951903	    105.65098486	     24.46791458	    -14.34912573	      0.00000000	    -29.61366138	      4.16574273	      1.12293138	    138.54287708	     -6.70373174	     60.85089711	     17.25762392	     55.00509203	    132.58463273	     -0.17400063	     42.78757352	     16.74490736	     42.19924453
      7.68333330	    -24.31694596	     -1.48334066	      6.48107845	      0.66791859	      0.49005039	     -0.08204698	    110.20709494	    -16.60390508	      5.41806041	    107.33827675	     20.21823104	    -27.51320198	      0.00000000	    110.97256337	     -5.49367069	      2.92030720	    106.16038301	     24.48230238	    -14.34317281	      0.00000000	    -29.83816229	      4.27167704	      0.82852919	    139.28943543	     -6.64484684	     60.83001621	     17.25527381	     54.89638359	    133.26959314	     -0.30451408	     42.82092231	     16.67479204	     42.07476168
      7.70000000	    -24.39653895	     -1.64781168	      6.57190321	      0.66819578	      0.48727173	     -0.08269556	    110.77315996	    -16.66073259	      5.49434618	    107.87588384	     20.19735814	    -27.66460681	      0.00000000	    111.64054112	     -5.37824736	      3.08259653	    106.57065970	     24.24838861	    -14.16304121	      0.00000000	    -30.12867041	      4.47544469	      0.63456892	    140.08112201	     -6.50901673	     60.81857089	     17.22173304	     54.77682387	    133.87213767	     -0.45880930	     42.87183843	     16.51521710	     41.93551226
      7.71666670	    -24.09433999	     -1.76730235	      6.50114597	      0.66830422	      0.48318282	     -0.08244428	    110.92906507	    -16.53854677	      5.45233965	    108.43503137	     19.77286548	    -28.48878245	      0.00000000	    111.95538319	     -5.37649586	      3.43010468	    107.14277756	     24.19323550	    -14.28957191	      0.00000000	    -31.04335532	      4.66370738	      0.56146276	    141.46682458	     -5.75307521	     61.44563157	     15.83464340	     53.86675729	    135.17493779	     -0.49743594	     43.98924852	     15.23267272	     40.83218613
      7.73333330	    -24.22678523	     -1.83284746	      6.52086812	      0.66911038	      0.47908767	     -0.08185039	    111.59719211	    -16.48863333	      5.60928730	    109.14643255	     19.76881181	    -28.52537080	      0.00000000	    112.65285168	     -5.38282064	      3.62509095	    107.77520979	     24.08635332	    -14.16356458	      0.00000000	    -31.19773501	      4.71001545	      0.53025150	    141.92216782	     -5.69377800	     61.49528222	     15.90847904	     53.77606320	    135.52100458	     -0.58402385	     44.09685444	     15.27659804	     40.71076230
      7.75000000	    -24.28610718	     -1.97752053	      6.61810003	      0.66920873	      0.47371275	     -0.08225868	    112.29465347	    -16.59777197	      5.74212905	    109.81947605	     19.69429761	    -28.52284369	      0.00000000	    113.35246036	     -5.30054500	      3.80039444	    108.43669331	     24.10178102	    -14.00108193	      0.00000000	    -31.41224400	      4.90608035	      0.42770084	    142.40547376	     -5.52589960	     61.54703142	     15.94096085	     53.66799040	    135.87912718	     -0.62997623	     44.20691610	     15.26213630	     40.56341643
